<mxfile host="app.diagrams.net" modified="2023-11-11T06:49:24.600Z" agent="Mozilla/5.0 (Macintosh; Intel Mac OS X 10_15_7) AppleWebKit/605.1.15 (KHTML, like Gecko) Version/15.4 Safari/605.1.15" version="22.1.0" etag="GSajPxTGQ2BoOMyx8M5v" type="github">
  <diagram name="第 1 页" id="K5xU30rjlGO-MJlq2AiM">
    <mxGraphModel>
      <root>
        <mxCell id="0" />
        <mxCell id="1" parent="0" />
      </root>
    </mxGraphModel>
  </diagram>
</mxfile>
